<svg height="496pt" viewBox="0 0 496 496" width="496pt" xmlns="http://www.w3.org/2000/svg"><path d="m464 472.160156v15.839844h-144v-15.839844c0-14.320312 9.441406-26.878906 23.199219-30.800781l32.800781-9.359375v-12.398438c-9.519531-5.601562-16-15.761718-16-27.601562v-16c0-18.640625 15.921875-33.519531 34.878906-31.839844 16.800782 1.441406 29.121094 16.640625 29.121094 33.519532v14.320312c0 11.839844-6.480469 22-16 27.601562v12.398438l32.800781 9.359375c13.757813 3.921875 23.199219 16.480469 23.199219 30.800781zm0 0" fill="#b4dd7f"/><path d="m176 488h-144v-15.839844c0-14.320312 9.441406-26.878906 23.199219-30.800781l32.800781-9.359375v-12.398438c-9.519531-5.601562-16-15.761718-16-27.601562v-16c0-18.640625 15.921875-33.519531 34.878906-31.839844 16.800782 1.441406 29.121094 16.640625 29.121094 33.519532v14.320312c0 11.839844-6.480469 22-16 27.601562v12.398438l32.800781 9.359375c13.757813 3.921875 23.199219 16.480469 23.199219 30.800781zm0 0" fill="#b4dd7f"/><path d="m320 472.160156v15.839844h-144v-15.839844c0-14.320312 9.441406-26.878906 23.199219-30.800781l24.800781-9.359375v-14.480469c-3.199219-1.839843-6.160156-4.160156-8.878906-6.640625l-6.722656 3.359375-22.636719-22.636719 5.277343-10.480468c-1.519531-3.042969-2.878906-6.160156-3.917968-9.441406l-11.121094-3.679688v-32l11.121094-3.679688c1.039062-3.28125 2.398437-6.398437 3.917968-9.441406l-5.277343-10.480468 22.636719-22.636719 10.480468 5.277343c3.042969-1.519531 6.160156-2.878906 9.441406-3.917968l3.679688-11.121094h32l3.679688 11.121094c3.28125 1.039062 6.398437 2.398437 9.441406 3.917968l10.480468-5.277343 22.636719 22.636719-5.277343 10.480468c1.519531 3.042969 2.878906 6.160156 3.917968 9.441406l11.121094 3.679688v32l-11.121094 3.679688c-1.039062 3.28125-2.398437 6.398437-3.917968 9.441406l5.277343 10.480468-22.636719 22.636719-6.722656-3.359375c-2.71875 2.480469-5.679687 4.800782-8.878906 6.640625v14.480469l24.800781 9.359375c13.757813 3.921875 23.199219 16.480469 23.199219 30.800781zm-40-120.160156c0-17.679688-14.320312-32-32-32s-32 14.320312-32 32 14.320312 32 32 32 32-14.320312 32-32zm0 0" fill="#fcd770"/><path d="m478.640625 113.359375c5.757813 5.839844 9.359375 13.839844 9.359375 22.640625 0 17.679688-14.320312 32-32 32h-144v-64h144c8.800781 0 16.800781 3.601562 22.640625 9.359375zm0 0" fill="#cf9e76"/><path d="m312 120v32h-48l-.960938-.160156c.640626-5.199219.960938-10.480469.960938-15.839844s-.320312-10.640625-.960938-15.839844l.960938-.160156zm0 0" fill="#aab2bd"/><path d="m263.039062 120.160156c.640626 5.199219.960938 10.480469.960938 15.839844s-.320312 10.640625-.960938 15.839844c-7.757812 63.199218-61.679687 112.160156-127.039062 112.160156-70.71875 0-128-57.28125-128-128s57.28125-128 128-128c65.359375 0 119.28125 48.960938 127.039062 112.160156zm0 0" fill="#ccd1d9"/><path d="m136 232c-53.039062 0-96-42.960938-96-96 0-23.679688 8.558594-45.28125 22.800781-62l11.199219-11.199219c16.71875-14.242187 38.320312-22.800781 62-22.800781 53.039062 0 96 42.960938 96 96 0 23.679688-8.558594 45.28125-22.800781 62l-11.199219 11.199219c-16.71875 14.242187-38.320312 22.800781-62 22.800781zm0 0" fill="#69d6f4"/><path d="m152 136c0 8.835938-7.164062 16-16 16s-16-7.164062-16-16 7.164062-16 16-16 16 7.164062 16 16zm0 0" fill="#ff826e"/><path d="m288 352c0-22.054688-17.945312-40-40-40s-40 17.945312-40 40 17.945312 40 40 40 40-17.945312 40-40zm-40 24c-13.230469 0-24-10.769531-24-24s10.769531-24 24-24 24 10.769531 24 24-10.769531 24-24 24zm0 0"/><path d="m442.984375 433.671875-26.984375-7.703125v-2.136719c9.96875-7.511719 16-19.328125 16-31.832031v-14.34375c0-21.503906-16.007812-39.726562-36.441406-41.503906-11.246094-1-22.351563 2.808594-30.582032 10.351562-8.25 7.566406-12.976562 18.320313-12.976562 29.496094v16c0 12.503906 6.03125 24.320312 16 31.832031v2.136719l-26.992188 7.703125c-8.582031 2.457031-15.855468 7.679687-20.976562 14.511719-5.039062-6.800782-12.152344-11.953125-20.414062-14.304688l-19.625-7.414062v-4.578125c.679687-.488281 1.359374-.984375 2.03125-1.503907l7.152343 3.585938 30.800781-30.808594-6.113281-12.160156c.441407-.984375.847657-1.96875 1.234375-2.953125l12.902344-4.269531v-43.546875l-12.902344-4.277344c-.386718-.984375-.800781-1.96875-1.234375-2.953125l6.113281-12.167969-30.800781-30.800781-12.167969 6.113281c-.984374-.441406-1.96875-.847656-2.953124-1.234375l-4.277344-12.910156h-43.546875l-4.277344 12.902344c-.984375.386718-1.96875.800781-2.953125 1.234375l-12.167969-6.113281-30.800781 30.800781 6.113281 12.167969c-.441406.984374-.847656 1.96875-1.234375 2.953124l-12.910156 4.277344v43.546875l12.902344 4.277344c.386718.984375.800781 1.96875 1.234375 2.953125l-6.113281 12.160156 30.800781 30.808594 7.152343-3.59375c.664063.519531 1.34375 1.023438 2.023438 1.503906v4.59375l-18.992188 7.191406c-8.601562 2.464844-15.886718 7.703126-21.007812 14.558594-5.128906-6.855468-12.40625-12.101562-21.015625-14.558594l-26.984375-7.695312v-2.136719c9.96875-7.511719 16-19.328125 16-31.832031v-14.34375c0-21.503906-16.007812-39.726562-36.441406-41.503906-11.230469-1-22.351563 2.808594-30.582032 10.351562-8.25 7.566406-12.976562 18.320313-12.976562 29.496094v16c0 12.503906 6.03125 24.320312 16 31.832031v2.136719l-26.992188 7.703125c-17.078124 4.886719-29.007812 20.703125-29.007812 38.472656v23.855469h448v-23.855469c0-17.769531-11.929688-33.585937-29.015625-38.472656zm-274.984375 46.328125h-128v-7.855469c0-10.65625 7.160156-20.152343 17.40625-23.082031l38.59375-11.03125v-23.070312l-3.976562-2.3125c-7.527344-4.382813-12.023438-12.105469-12.023438-20.648438v-16c0-6.710938 2.832031-13.160156 7.792969-17.695312 5.007812-4.59375 11.558593-6.800782 18.382812-6.207032 12.238281 1.0625 21.824219 12.285156 21.824219 25.558594v14.34375c0 8.542969-4.496094 16.265625-12.023438 20.648438l-3.976562 2.3125v23.070312l38.585938 11.03125c10.253906 2.929688 17.414062 12.425781 17.414062 23.082031zm144 0h-128v-7.855469c0-10.65625 7.160156-20.152343 18.039062-23.289062l29.960938-11.328125v-24.625l-3.992188-2.300782c-2.519531-1.464843-5.007812-3.335937-7.390624-5.578124l-4.074219-3.839844-6.574219 3.304687-14.457031-14.464843 4.496093-8.960938-1.839843-3.605469c-1.414063-2.761719-2.566407-5.519531-3.449219-8.226562l-1.238281-3.855469-9.480469-3.152344v-20.453125l9.488281-3.144531 1.238281-3.855469c.875-2.707031 2.035157-5.472656 3.449219-8.226562l1.839844-3.605469-4.496094-8.96875 14.457031-14.457031 8.96875 4.496093 3.605469-1.839843c2.761719-1.414063 5.519531-2.566407 8.226563-3.449219l3.855468-1.238281 3.144532-9.480469h20.453125l3.144531 9.488281 3.855469 1.238281c2.707031.875 5.472656 2.035157 8.226562 3.449219l3.605469 1.839844 8.96875-4.496094 14.457031 14.457031-4.496093 8.96875 1.839843 3.605469c1.414063 2.761719 2.566407 5.519531 3.449219 8.226563l1.238281 3.855468 9.480469 3.144532v20.453125l-9.488281 3.144531-1.238281 3.855469c-.875 2.707031-2.035157 5.472656-3.449219 8.226562l-1.839844 3.605469 4.496094 8.960938-14.457031 14.464843-6.574219-3.304687-4.074219 3.839844c-2.382812 2.242187-4.871094 4.128906-7.414062 5.59375l-3.992188 2.3125.03125 24.597656 30.574219 11.527344c10.265625 2.9375 17.425781 12.433593 17.425781 23.089843zm144 0h-128v-7.855469c0-10.65625 7.160156-20.152343 17.40625-23.082031l38.59375-11.03125v-23.070312l-3.976562-2.3125c-7.527344-4.382813-12.023438-12.105469-12.023438-20.648438v-16c0-6.710938 2.832031-13.160156 7.792969-17.695312 5.007812-4.59375 11.574219-6.800782 18.382812-6.207032 12.238281 1.0625 21.824219 12.285156 21.824219 25.558594v14.34375c0 8.542969-4.496094 16.265625-12.023438 20.648438l-3.976562 2.3125v23.070312l38.585938 11.03125c10.253906 2.929688 17.414062 12.425781 17.414062 23.082031zm0 0"/><path d="m160 136c0-13.230469-10.769531-24-24-24s-24 10.769531-24 24 10.769531 24 24 24 24-10.769531 24-24zm-32 0c0-4.414062 3.585938-8 8-8s8 3.585938 8 8-3.585938 8-8 8-8-3.585938-8-8zm0 0"/><path d="m456 96h-152v16h-34.246094c-11.386718-63.566406-66.960937-112-133.753906-112-74.992188 0-136 61.007812-136 136s61.007812 136 136 136c66.792969 0 122.367188-48.433594 133.753906-112h34.246094v16h152c22.054688 0 40-17.945312 40-40s-17.945312-40-40-40zm-320 160c-66.167969 0-120-53.832031-120-120s53.832031-120 120-120 120 53.832031 120 120-53.832031 120-120 120zm135.59375-112c.160156-2.664062.40625-5.296875.40625-8s-.246094-5.335938-.40625-8h32.40625v16zm184.40625 16h-136v-48h136c13.230469 0 24 10.769531 24 24s-10.769531 24-24 24zm0 0"/><path d="m464 136c0 4.417969-3.582031 8-8 8s-8-3.582031-8-8 3.582031-8 8-8 8 3.582031 8 8zm0 0"/><path d="m136 32c-24.550781 0-48.414062 8.769531-67.183594 24.679688l10.34375 12.199218c13.832032-11.726562 30.9375-18.855468 48.839844-20.503906v31.625h16v-31.59375c42.144531 3.824219 75.777344 37.449219 79.59375 79.59375h-31.59375v16h31.625c-1.648438 17.902344-8.777344 35.007812-20.503906 48.839844l12.199218 10.34375c15.910157-18.769532 24.679688-42.632813 24.679688-67.183594 0-57.34375-46.65625-104-104-104zm0 0"/><path d="m144 223.625v-31.625h-16v31.59375c-42.144531-3.816406-75.777344-37.449219-79.59375-79.59375h31.59375v-16h-31.625c1.648438-17.902344 8.777344-35.007812 20.503906-48.839844l-12.199218-10.34375c-15.910157 18.769532-24.679688 42.632813-24.679688 67.183594 0 57.34375 46.65625 104 104 104 24.550781 0 48.414062-8.769531 67.183594-24.679688l-10.34375-12.199218c-13.832032 11.726562-30.9375 18.855468-48.839844 20.503906zm0 0"/></svg>